# xmcd CD database file
# Copyright (C) 1997 Ti Kan
# 
# Track frame offsets:
#     150
#     13265
#     31022
#     46922
#     59625
#     77887
#     92760
#     108175
#     123525
#     145425
# 
# Disc length: 2264 seconds
# 
# Revision: 1
# Processed by: cddbd v1.4b41PL1 Copyright (c) Steve Scherf et al.
# Submitted via: DiscPlay 4.0.4
# 
DISCID=8508d60a
DTITLE=Louis Armstrong - The Guvnor
DYEAR=1900
DGENRE=
TTITLE0=St. Louis Blues
TTITLE1=Cabaret
TTITLE2=Black and Blue
TTITLE3=Jelly Roll Blues
TTITLE4=Black Ole Town Blues
TTITLE5=Rockin' Chair
TTITLE6=You're lucky to me
TTITLE7=Please Don't Talk About Me When I'm Gone
TTITLE8=St. James Infirmary
TTITLE9=Butter And Egg Man
EXTD=
EXTT0=
EXTT1=
EXTT2=
EXTT3=
EXTT4=
EXTT5=
EXTT6=
EXTT7=
EXTT8=
EXTT9=
PLAYORDER=
